{"title":"BAIL ENFORCERS 2011 XviD-DIDyourMUM","uid":6759623,"size":775373046,"categoryP":"video","categoryS":"movies","magnet":"?xt=urn:btih:bc2ea23191d4c1435f98d7816b361538abb52e69&amp;dn=BAIL+ENFORCERS+2011+XviD-DIDyourMUM&amp;tr=udp%3A%2F%2Ftracker.openbittorrent.com%3A80&amp;tr=udp%3A%2F%2Fopen.demonii.com%3A1337&amp;tr=udp%3A%2F%2Ftracker.coppersurfer.tk%3A6969&amp;tr=udp%3A%2F%2Fexodus.desync.com%3A6969","seeders":0,"leechers":1,"uploader":".BONE.","files":2,"time":1319160768,"description":"BAIL ENFORCERS 2011 XviD - DIDyourMUM\n\nFormat : AVI\nFormat/Info : Audio Video Interleave\nFile size : 739 MiB\nDuration : 1h 21mn\nOverall bit rate : 1 276 Kbps\n\n\nVideo\nID : 0\nFormat : MPEG-4 Visual\nFormat profile : Advanced Simple@L5\nFormat settings, BVOP : 2\nFormat settings, QPel : No\nFormat settings, GMC : No warppoints\nFormat settings, Matrix : Default (H.263)\nMuxing mode : Packed bitstream\nCodec ID : XVID\nCodec ID/Hint : XviD\nDuration : 1h 21mn\nBit rate : 1 075 Kbps\nWidth : 720 pixels\nHeight : 400 pixels\nDisplay aspect ratio : 16:9\nFrame rate : 23.976 fps\nColor space : YUV\nChroma subsampling : 4:2:0\nBit depth : 8 bits\nScan type : Progressive\nCompression mode : Lossy\nBits/(Pixel*Frame) : 0.156\nStream size : 623 MiB (84%)\nWriting library : XviD 64\n\nAudio\nID : 1\nFormat : AC-3\nFormat/Info : Audio Coding 3\nMode extension : CM (complete main)\nCodec ID : 2000\nDuration : 1h 21mn\nBit rate mode : Constant\nBit rate : 192 Kbps\nChannel(s) : 2 channels\nChannel positions : Front: L R\nSampling rate : 48.0 KHz\nBit depth : 16 bits\nCompression mode : Lossy\nStream size : 111 MiB (15%)\nAlignment : Aligned on interleaves\nInterleave, duration : 42 ms (1.00 video frame)\nInterleave, preload duration : 512 ms\n\n\nSOURCES THANKED:\n\nAUDIO: BAIL ENFORCERS 2011 DVDR DIDyourGRAN thanks\nVIDEO: BAIL ENFORCERS 2011 DVDR DIDyourGRAN thanks\n\n  &lt;a href=&quot;\nhttp://www.imdb.com/title/tt1596565/&quot; rel=&quot;nofollow&quot; target=&quot;_NEW&quot;&gt;\nhttp://www.imdb.com/title/tt1596565/&lt;/a&gt;\n\n\nPoster:\n\n  &lt;a href=&quot;\nhttp://shareimage.org/images/8ux4ix9jqbc3829eoboc.jpg&quot; rel=&quot;nofollow&quot; target=&quot;_NEW&quot;&gt;\nhttp://shareimage.org/images/8ux4ix9jqbc3829eoboc.jpg&lt;/a&gt;\n\n\nScreens:\n\n  &lt;a href=&quot;\nhttp://shareimage.org/images/drvkc08hctljedqi30j0.png&quot; rel=&quot;nofollow&quot; target=&quot;_NEW&quot;&gt;\nhttp://shareimage.org/images/drvkc08hctljedqi30j0.png&lt;/a&gt;\n  &lt;a href=&quot;\nhttp://shareimage.org/images/sgzw2xgm677rv99n2s3c.png&quot; rel=&quot;nofollow&quot; target=&quot;_NEW&quot;&gt;\nhttp://shareimage.org/images/sgzw2xgm677rv99n2s3c.png&lt;/a&gt;\n\n\nENJOY!\t\t","torrent":{"xt":"urn:btih:bc2ea23191d4c1435f98d7816b361538abb52e69","amp;dn":"BAIL+ENFORCERS+2011+XviD-DIDyourMUM","amp;tr":["udp%3A%2F%2Ftracker.openbittorrent.com%3A80","udp%3A%2F%2Fopen.demonii.com%3A1337","udp%3A%2F%2Ftracker.coppersurfer.tk%3A6969","udp%3A%2F%2Fexodus.desync.com%3A6969"],"infoHash":"bc2ea23191d4c1435f98d7816b361538abb52e69","infoHashBuffer":{"type":"Buffer","data":[188,46,162,49,145,212,193,67,95,152,215,129,107,54,21,56,171,181,46,105]},"announce":[],"urlList":[]}}